<?xml version="1.0" encoding="utf-8"?>
<!-- Generator: Adobe Illustrator 25.4.1, SVG Export Plug-In . SVG Version: 6.00 Build 0)  -->
<svg version="1.1" id="Layer_1" xmlns="http://www.w3.org/2000/svg" xmlns:xlink="http://www.w3.org/1999/xlink" x="0px" y="0px"
	 viewBox="0 0 376.4 148.4" style="enable-background:new 0 0 376.4 148.4;" xml:space="preserve">
<style type="text/css">
	.st0{fill:none;}
	.st1{enable-background:new    ;}
	.st2{fill:#F7E13D;}
	.st3{fill:#010101;}
</style>
<g id="Black">
	<rect x="167.9" y="-6.6" class="st0" width="148.9" height="163.2"/>
	<g class="st1">
		<path class="st2" d="M241.7,148.4c-19.5,0-34.6-4.7-45.1-14.2c-10.5-9.4-15.8-23.2-15.8-41.4V0h36.5v90.7
			c0,10.1,1.9,17.6,5.7,22.6c3.8,4.9,10,7.4,18.6,7.4c8.4,0,14.6-2.4,18.5-7.1c3.9-4.8,5.9-12.4,5.9-22.9V0h36.5v92.8
			c0,17.9-5.1,31.7-15.4,41.3C277,143.6,261.8,148.4,241.7,148.4z"/>
	</g>
	<rect x="-7.4" y="31.6" class="st0" width="407" height="77"/>
	<g class="st1">
		<path class="st3" d="M52.9,92.4H38.4L13.8,52.4v39.9H0V34.2h17.9l21.2,33.3V34.2h13.8V92.4z"/>
		<path class="st3" d="M109.8,92.4H67.7V34.2h42.1v11.2H82.7v10h25.2v11.2H82.7v14.4h27.1V92.4z"/>
		<path class="st3" d="M175.1,92.4h-17.4l-12.5-19.1l-12.8,19.1h-16.6l20.6-29.3l-20.2-28.9h17.3l12.1,18.1l12.4-18.1h16.6
			l-20.3,28.3L175.1,92.4z"/>
		<path class="st3" d="M229,45.4h-18.2v46.9h-15V45.4h-18.2V34.2H229V45.4z"/>
		<path class="st3" d="M310.9,45.4h-18.2v46.9h-15V45.4h-18.2V34.2h51.3V45.4z"/>
		<path class="st3" d="M376.4,63.3c0,9.3-2.7,16.6-8,22.1c-5.3,5.5-12.7,8.2-22,8.2c-9.3,0-16.7-2.7-22-8.2c-5.3-5.5-8-12.8-8-22.1
			c0-9.3,2.7-16.7,8-22.2s12.6-8.1,22-8.1c9.3,0,16.7,2.7,22,8.1C373.8,46.6,376.4,54,376.4,63.3z M356.6,78
			c1.5-1.8,2.5-3.9,3.2-6.3c0.7-2.4,1.1-5.2,1.1-8.5c0-3.5-0.4-6.5-1.2-8.9c-0.8-2.4-1.9-4.4-3.2-5.9c-1.3-1.6-2.9-2.7-4.6-3.4
			c-1.7-0.7-3.5-1.1-5.4-1.1c-1.9,0-3.7,0.3-5.4,1c-1.7,0.7-3.2,1.8-4.6,3.4c-1.3,1.5-2.4,3.5-3.2,6c-0.8,2.6-1.2,5.5-1.2,8.9
			c0,3.5,0.4,6.4,1.2,8.8c0.8,2.4,1.8,4.4,3.1,6c1.3,1.5,2.8,2.7,4.6,3.4c1.7,0.7,3.6,1.1,5.5,1.1c1.9,0,3.8-0.4,5.5-1.1
			C353.7,80.7,355.3,79.6,356.6,78z"/>
	</g>
</g>
</svg>
