<svg version="1.1" id="Layer_1" xmlns="http://www.w3.org/2000/svg" xmlns:xlink="http://www.w3.org/1999/xlink" x="0px" y="0px"
	 width="100%" viewBox="0 0 396 484" enable-background="new 0 0 396 484" xml:space="preserve">
<path fill="#F7E13C" opacity="1.000000" stroke="none" 
	d="
M238.000000,485.000000 
	C212.312439,485.000000 186.624878,485.000000 160.807648,484.661987 
	C158.344330,483.880463 156.016418,483.403900 153.676147,482.998749 
	C136.020065,479.942047 118.446770,476.430756 101.708641,469.882904 
	C82.106491,462.214630 64.196564,451.565826 48.744282,437.179321 
	C36.600685,425.873230 26.879210,412.533203 19.442978,397.775940 
	C10.976743,380.974670 5.548903,363.079895 2.927937,344.382050 
	C2.806401,343.514984 1.665919,342.790741 0.999998,342.000000 
	C1.000000,228.379532 1.000000,114.759079 1.000000,1.069309 
	C132.900101,1.069309 264.800262,1.069309 397.000000,1.069309 
	C397.000000,113.354050 397.000000,225.708374 396.666473,338.192810 
	C395.558655,341.409210 394.503662,344.455475 394.057037,347.588440 
	C391.690521,364.189026 386.717773,380.012634 379.404785,395.023804 
	C370.697632,412.896759 359.028229,428.530640 343.944550,441.753448 
	C332.056549,452.174805 318.849121,460.395935 304.566254,466.617462 
	C283.993103,475.578979 262.345947,481.048706 239.906036,483.083038 
	C239.218414,483.145355 238.633041,484.335602 238.000000,485.000000 
z"/>
<path fill="none" opacity="1.000000" stroke="none"
	d="
M238.468658,485.000000 
	C238.633041,484.335602 239.218414,483.145355 239.906036,483.083038 
	C262.345947,481.048706 283.993103,475.578979 304.566254,466.617462 
	C318.849121,460.395935 332.056549,452.174805 343.944550,441.753448 
	C359.028229,428.530640 370.697632,412.896759 379.404785,395.023804 
	C386.717773,380.012634 391.690521,364.189026 394.057037,347.588440 
	C394.503662,344.455475 395.558655,341.409210 396.666473,338.661469 
	C397.000000,387.596771 397.000000,436.193573 397.000000,485.000000 
	C344.312622,485.000000 291.624969,485.000000 238.468658,485.000000 
z"/>
<path fill="none" opacity="1.000000" stroke="none"
	d="
M0.999998,342.468658 
	C1.665919,342.790741 2.806401,343.514984 2.927937,344.382050 
	C5.548903,363.079895 10.976743,380.974670 19.442978,397.775940 
	C26.879210,412.533203 36.600685,425.873230 48.744282,437.179321 
	C64.196564,451.565826 82.106491,462.214630 101.708641,469.882904 
	C118.446770,476.430756 136.020065,479.942047 153.676147,482.998749 
	C156.016418,483.403900 158.344330,483.880463 160.338989,484.661987 
	C107.076874,485.000000 54.153751,485.000000 1.000000,485.000000 
	C1.000000,437.646027 1.000000,390.291656 0.999998,342.468658 
z"/>
</svg>
