<?xml version="1.0" standalone="no"?>
<!DOCTYPE svg PUBLIC "-//W3C//DTD SVG 20010904//EN"
 "http://www.w3.org/TR/2001/REC-SVG-20010904/DTD/svg10.dtd">
<svg version="1.0" xmlns="http://www.w3.org/2000/svg"
 width="196.000000pt" height="24.000000pt" viewBox="0 0 196.000000 24.000000"
 preserveAspectRatio="xMidYMid meet">

<g transform="translate(0.000000,24.000000) scale(0.100000,-0.100000)"
fill="#000000" stroke="none">
<path d="M0 120 l0 -110 50 0 c66 0 115 21 134 59 45 87 -16 161 -134 161
l-50 0 0 -110z m137 48 c48 -45 13 -118 -59 -118 l-38 0 0 70 0 70 37 0 c24 0
45 -8 60 -22z"/>
<path d="M408 183 c-11 -26 -33 -76 -49 -110 l-28 -63 25 0 c13 0 24 4 24 9 0
4 15 41 33 81 l33 73 34 -81 c25 -60 38 -82 52 -82 10 0 18 4 18 9 0 4 -20 53
-44 107 -52 117 -67 126 -98 57z"/>
<path d="M724 196 c-28 -28 -34 -42 -34 -76 0 -34 6 -48 34 -76 27 -27 42 -34
73 -34 56 0 118 46 87 63 -10 6 -22 3 -35 -9 -45 -41 -119 -5 -119 57 0 58 78
92 121 53 12 -11 23 -13 34 -7 15 9 13 13 -15 36 -47 40 -102 37 -146 -7z"/>
<path d="M1084 196 c-28 -28 -34 -42 -34 -76 0 -58 50 -110 105 -110 68 0 118
47 118 110 0 63 -50 110 -118 110 -29 0 -45 -8 -71 -34z m128 -23 c25 -22 24
-84 -2 -108 -46 -42 -120 -7 -120 56 0 59 78 92 122 52z"/>
<path d="M1434 217 c-3 -8 -3 -56 -2 -108 l3 -94 40 -3 c90 -8 155 37 155 107
0 46 -23 79 -66 97 -43 18 -123 18 -130 1z m136 -47 c47 -47 11 -120 -60 -120
l-40 0 0 70 0 70 40 0 c27 0 47 -7 60 -20z"/>
<path d="M1794 217 c-3 -8 -3 -56 -2 -108 l3 -94 78 -3 c72 -3 77 -1 77 18 0
18 -6 20 -60 20 -57 0 -60 1 -60 25 0 23 3 25 50 25 43 0 50 3 50 20 0 17 -7
20 -50 20 -47 0 -50 2 -50 25 0 24 3 25 60 25 53 0 60 2 60 20 0 18 -7 20 -75
20 -54 0 -77 -4 -81 -13z"/>
</g>
</svg>
